<svg width="32" height="18" viewBox="0 0 32 18" fill="none" xmlns="http://www.w3.org/2000/svg">
<rect x="0.5" y="0.5" width="31" height="17" rx="3.5" fill="url(#paint0_linear_903_9573)" fill-opacity="0.2"/>
<rect x="0.5" y="0.5" width="31" height="17" rx="3.5" stroke="url(#paint1_linear_903_9573)"/>
<path d="M9.78242 9.39C10.2424 9.49 10.5958 9.69 10.8424 9.99C11.0958 10.2833 11.2224 10.6633 11.2224 11.13C11.2224 11.73 10.9991 12.1933 10.5524 12.52C10.1124 12.84 9.45909 13 8.59242 13H5.37242V6H8.39242C9.17242 6 9.77576 6.15667 10.2024 6.47C10.6358 6.78333 10.8524 7.22667 10.8524 7.8C10.8524 8.18667 10.7558 8.51667 10.5624 8.79C10.3758 9.05667 10.1158 9.25667 9.78242 9.39ZM6.11242 6.61V9.15H8.34242C8.90909 9.15 9.34576 9.04333 9.65242 8.83C9.95909 8.61 10.1124 8.29333 10.1124 7.88C10.1124 7.46667 9.95909 7.15333 9.65242 6.94C9.34576 6.72 8.90909 6.61 8.34242 6.61H6.11242ZM8.58242 12.39C9.20909 12.39 9.68242 12.2833 10.0024 12.07C10.3224 11.8567 10.4824 11.5233 10.4824 11.07C10.4824 10.1967 9.84909 9.76 8.58242 9.76H6.11242V12.39H8.58242ZM17.3415 10.59H12.9415C12.9815 11.1367 13.1915 11.58 13.5715 11.92C13.9515 12.2533 14.4315 12.42 15.0115 12.42C15.3382 12.42 15.6382 12.3633 15.9115 12.25C16.1848 12.13 16.4215 11.9567 16.6215 11.73L17.0215 12.19C16.7882 12.47 16.4948 12.6833 16.1415 12.83C15.7948 12.9767 15.4115 13.05 14.9915 13.05C14.4515 13.05 13.9715 12.9367 13.5515 12.71C13.1382 12.4767 12.8148 12.1567 12.5815 11.75C12.3482 11.3433 12.2315 10.8833 12.2315 10.37C12.2315 9.85667 12.3415 9.39667 12.5615 8.99C12.7882 8.58333 13.0948 8.26667 13.4815 8.04C13.8748 7.81333 14.3148 7.7 14.8015 7.7C15.2882 7.7 15.7248 7.81333 16.1115 8.04C16.4982 8.26667 16.8015 8.58333 17.0215 8.99C17.2415 9.39 17.3515 9.85 17.3515 10.37L17.3415 10.59ZM14.8015 8.31C14.2948 8.31 13.8682 8.47333 13.5215 8.8C13.1815 9.12 12.9882 9.54 12.9415 10.06H16.6715C16.6248 9.54 16.4282 9.12 16.0815 8.8C15.7415 8.47333 15.3148 8.31 14.8015 8.31ZM21.5666 12.68C21.4333 12.8 21.2666 12.8933 21.0666 12.96C20.8733 13.02 20.67 13.05 20.4566 13.05C19.9633 13.05 19.5833 12.9167 19.3166 12.65C19.05 12.3833 18.9166 12.0067 18.9166 11.52V8.34H17.9766V7.74H18.9166V6.59H19.6266V7.74H21.2266V8.34H19.6266V11.48C19.6266 11.7933 19.7033 12.0333 19.8566 12.2C20.0166 12.36 20.2433 12.44 20.5366 12.44C20.6833 12.44 20.8233 12.4167 20.9566 12.37C21.0966 12.3233 21.2166 12.2567 21.3166 12.17L21.5666 12.68ZM24.6991 7.7C25.3858 7.7 25.9125 7.87333 26.2791 8.22C26.6458 8.56 26.8291 9.06667 26.8291 9.74V13H26.1491V12.18C25.9891 12.4533 25.7525 12.6667 25.4391 12.82C25.1325 12.9733 24.7658 13.05 24.3391 13.05C23.7525 13.05 23.2858 12.91 22.9391 12.63C22.5925 12.35 22.4191 11.98 22.4191 11.52C22.4191 11.0733 22.5791 10.7133 22.8991 10.44C23.2258 10.1667 23.7425 10.03 24.4491 10.03H26.1191V9.71C26.1191 9.25667 25.9925 8.91333 25.7391 8.68C25.4858 8.44 25.1158 8.32 24.6291 8.32C24.2958 8.32 23.9758 8.37667 23.6691 8.49C23.3625 8.59667 23.0991 8.74667 22.8791 8.94L22.5591 8.41C22.8258 8.18333 23.1458 8.01 23.5191 7.89C23.8925 7.76333 24.2858 7.7 24.6991 7.7ZM24.4491 12.49C24.8491 12.49 25.1925 12.4 25.4791 12.22C25.7658 12.0333 25.9791 11.7667 26.1191 11.42V10.56H24.4691C23.5691 10.56 23.1191 10.8733 23.1191 11.5C23.1191 11.8067 23.2358 12.05 23.4691 12.23C23.7025 12.4033 24.0291 12.49 24.4491 12.49Z" fill="white"/>
<defs>
<linearGradient id="paint0_linear_903_9573" x1="0" y1="0" x2="31.8796" y2="16.5181" gradientUnits="userSpaceOnUse">
<stop stop-color="#9A4BFE"/>
<stop offset="0.316659" stop-color="#1CD6FF"/>
<stop offset="1" stop-color="#1BFEDF"/>
</linearGradient>
<linearGradient id="paint1_linear_903_9573" x1="2.59459" y1="-3.91551e-07" x2="31.9038" y2="13.9168" gradientUnits="userSpaceOnUse">
<stop stop-color="#9A4BFE"/>
<stop offset="0.500189" stop-color="#1CD6FF"/>
<stop offset="1" stop-color="#1BFEDF"/>
</linearGradient>
</defs>
</svg>
